<svg xmlns="http://www.w3.org/2000/svg" xmlns:xlink="http://www.w3.org/1999/xlink" version="1.1" x="0px" y="0px" viewBox="0 0 100 125" style="enable-background:new 0 0 100 100;" xml:space="preserve"><path fill="#dcdcdc" d="M69.3,9.1h-5.8v10.3H36.5V9.1h-5.8v10.3H8.6v73.2h82.8V19.4H69.3V9.1z M85.6,25.2v61.6H14.4V25.2h16.3v7h5.8v-7h26.9v7h5.8  v-7H85.6z"/><rect fill="#dcdcdc" x="23.1" y="45.4" width="12.7" height="5.8"/><rect fill="#dcdcdc" x="23.1" y="72.4" width="12.7" height="5.8"/><rect x="23.1" fill="#dcdcdc" y="58.9" width="12.7" height="5.8"/><rect fill="#dcdcdc" x="43.6" y="45.4" width="12.7" height="5.8"/><rect fill="#dcdcdc" x="43.6" y="72.4" width="12.7" height="5.8"/><rect fill="#dcdcdc" x="43.6" y="58.9" width="12.7" height="5.8"/><rect fill="#dcdcdc" x="64.2" y="45.4" width="12.7" height="5.8"/><rect fill="#dcdcdc" x="64.2" y="72.4" width="12.7" height="5.8"/><rect fill="#dcdcdc" x="64.2" y="58.9" width="12.7" height="5.8"/></svg>
